<?xml version="1.0" standalone="no"?>
<!DOCTYPE svg PUBLIC "-//W3C//DTD SVG 20010904//EN"
 "http://www.w3.org/TR/2001/REC-SVG-20010904/DTD/svg10.dtd">
<svg version="1.0" xmlns="http://www.w3.org/2000/svg"
 width="225.000000pt" height="225.000000pt" viewBox="0 0 225.000000 225.000000"
 preserveAspectRatio="xMidYMid meet">
<metadata>
Created by potrace 1.15, written by Peter Selinger 2001-2017
</metadata>
<g transform="translate(0.000000,225.000000) scale(0.100000,-0.100000)"
fill="#000000" stroke="none">
<path d="M1493 2103 c4 -6 25 -13 48 -17 51 -8 109 -61 109 -99 0 -14 -12 -39
-26 -56 -50 -59 -121 -53 -398 34 -94 29 -200 61 -236 70 -241 62 -451 -57
-476 -268 -12 -99 32 -194 108 -237 l42 -24 -22 28 c-43 56 -18 159 48 194 43
22 143 7 400 -62 135 -36 282 -73 327 -82 l83 -17 0 -163 0 -164 -75 -61 c-41
-34 -75 -65 -75 -68 0 -3 34 -33 75 -66 l75 -60 0 -233 0 -233 -46 -20 c-139
-62 -287 -60 -418 5 -66 32 -166 108 -166 125 0 3 90 51 200 106 l200 100 0
352 0 353 -32 -14 c-18 -7 -129 -57 -247 -110 -118 -53 -216 -94 -218 -92 -8
7 45 102 85 152 22 28 64 68 93 89 76 54 77 56 34 44 -239 -66 -455 -290 -520
-537 -18 -70 -20 -231 -4 -318 48 -263 262 -487 524 -550 93 -22 232 -22 315
0 164 43 316 149 389 271 53 87 92 208 98 300 l5 80 -27 -50 c-15 -27 -43 -71
-62 -97 -35 -49 -159 -168 -174 -168 -5 0 -9 101 -9 224 l0 223 75 59 c41 32
75 62 75 66 0 3 -34 33 -75 65 l-74 58 -1 166 0 167 46 7 c139 20 234 118 250
256 13 112 -43 203 -154 250 -52 22 -179 39 -169 22z m-533 -1063 l0 -340 -51
-25 c-47 -25 -52 -25 -69 -10 -24 22 -83 144 -106 220 -26 83 -24 266 2 350
l20 59 94 43 c52 23 98 43 103 43 4 0 7 -153 7 -340z"/>
</g>
</svg>
